<svg xmlns="http://www.w3.org/2000/svg" width="1200" height="620" viewBox="0 0 1200 620" role="img" aria-labelledby="title desc">
  <title id="title">TX-COMU digital color palette</title>
  <desc id="desc">Six color swatches: navy, blue, slate, light, white, and red, each with its hexadecimal value displayed beneath the color block.</desc>

  <rect width="1200" height="620" fill="#F4F7FB"/>
  <text x="60" y="65" fill="#10233F" font-family="Arial, Helvetica, sans-serif" font-size="36" font-weight="700">TX-COMU Digital Color Palette</text>

  <g font-family="Arial, Helvetica, sans-serif">
    <rect x="60" y="100" width="340" height="110" rx="14" fill="#10233F"/>
    <text x="60" y="250" fill="#10233F" font-size="26" font-weight="700">Navy</text>
    <text x="60" y="282" fill="#465466" font-size="22">#10233F</text>

    <rect x="430" y="100" width="340" height="110" rx="14" fill="#1F5F99"/>
    <text x="430" y="250" fill="#10233F" font-size="26" font-weight="700">Blue</text>
    <text x="430" y="282" fill="#465466" font-size="22">#1F5F99</text>

    <rect x="800" y="100" width="340" height="110" rx="14" fill="#465466"/>
    <text x="800" y="250" fill="#10233F" font-size="26" font-weight="700">Slate</text>
    <text x="800" y="282" fill="#465466" font-size="22">#465466</text>

    <rect x="60" y="330" width="340" height="110" rx="14" fill="#F4F7FB" stroke="#465466" stroke-width="2"/>
    <text x="60" y="480" fill="#10233F" font-size="26" font-weight="700">Light</text>
    <text x="60" y="512" fill="#465466" font-size="22">#F4F7FB</text>

    <rect x="430" y="330" width="340" height="110" rx="14" fill="#FFFFFF" stroke="#465466" stroke-width="2"/>
    <text x="430" y="480" fill="#10233F" font-size="26" font-weight="700">White</text>
    <text x="430" y="512" fill="#465466" font-size="22">#FFFFFF</text>

    <rect x="800" y="330" width="340" height="110" rx="14" fill="#D72638"/>
    <text x="800" y="480" fill="#10233F" font-size="26" font-weight="700">Red</text>
    <text x="800" y="512" fill="#465466" font-size="22">#D72638</text>

    <text x="60" y="580" fill="#465466" font-size="20">Centralized digital tokens for TX-COMU web and application interfaces.</text>
  </g>
</svg>
