<svg xmlns="http://www.w3.org/2000/svg" width="1200" height="520" viewBox="0 0 1200 520" role="img" aria-labelledby="title desc">
  <title id="title">TX-COMU digital color palette</title>
  <desc id="desc">Six color swatches: navy, blue, slate, light, white, and red, each labeled with its hexadecimal value.</desc>
  <rect width="1200" height="520" fill="#F4F7FB"/>
  <text x="60" y="70" fill="#10233F" font-family="Arial, Helvetica, sans-serif" font-size="36" font-weight="700">TX-COMU Digital Color Palette</text>

  <g font-family="Arial, Helvetica, sans-serif">
    <rect x="60" y="110" width="340" height="130" rx="16" fill="#10233F"/>
    <text x="85" y="165" fill="#FFFFFF" font-size="28" font-weight="700">Navy</text>
    <text x="85" y="205" fill="#FFFFFF" font-size="22">#10233F</text>

    <rect x="430" y="110" width="340" height="130" rx="16" fill="#1F5F99"/>
    <text x="455" y="165" fill="#FFFFFF" font-size="28" font-weight="700">Blue</text>
    <text x="455" y="205" fill="#FFFFFF" font-size="22">#1F5F99</text>

    <rect x="800" y="110" width="340" height="130" rx="16" fill="#465466"/>
    <text x="825" y="165" fill="#FFFFFF" font-size="28" font-weight="700">Slate</text>
    <text x="825" y="205" fill="#FFFFFF" font-size="22">#465466</text>

    <rect x="60" y="270" width="340" height="130" rx="16" fill="#F4F7FB" stroke="#465466" stroke-width="2"/>
    <text x="85" y="325" fill="#10233F" font-size="28" font-weight="700">Light</text>
    <text x="85" y="365" fill="#10233F" font-size="22">#F4F7FB</text>

    <rect x="430" y="270" width="340" height="130" rx="16" fill="#FFFFFF" stroke="#465466" stroke-width="2"/>
    <text x="455" y="325" fill="#10233F" font-size="28" font-weight="700">White</text>
    <text x="455" y="365" fill="#10233F" font-size="22">#FFFFFF</text>

    <rect x="800" y="270" width="340" height="130" rx="16" fill="#D72638"/>
    <text x="825" y="325" fill="#FFFFFF" font-size="28" font-weight="700">Red</text>
    <text x="825" y="365" fill="#FFFFFF" font-size="22">#D72638</text>

    <text x="60" y="465" fill="#465466" font-size="20">Centralized digital tokens for TX-COMU web and application interfaces.</text>
  </g>
</svg>
